<?xml version="1.0" standalone="no"?>
<!DOCTYPE svg PUBLIC "-//W3C//DTD SVG 20010904//EN"
 "http://www.w3.org/TR/2001/REC-SVG-20010904/DTD/svg10.dtd">
<svg version="1.0" xmlns="http://www.w3.org/2000/svg"
 width="800.000000pt" height="800.000000pt" viewBox="0 0 800.000000 800.000000"
 preserveAspectRatio="xMidYMid meet">

<g transform="translate(0.000000,800.000000) scale(0.100000,-0.100000)"
fill="#ffffff" stroke="none">
<path d="M1642 5387 l-1372 -1372 0 -563 0 -562 1375 0 1375 0 0 -685 0 -685
685 0 685 0 0 1245 0 1245 -1372 0 -1373 0 1375 1375 1375 1375 -690 0 -690 0
-1373 -1373z"/>
<path d="M4980 6074 c0 -377 4 -684 8 -682 5 2 314 310 687 686 l677 682 -686
0 -686 0 0 -686z"/>
<path d="M6360 6072 l0 -687 -690 -690 -690 -690 2 -685 3 -685 1373 -2 1372
-3 0 687 0 688 -685 -685 -685 -685 0 691 0 692 685 677 685 678 0 693 0 694
-685 0 -685 0 0 -688z"/>
</g>
</svg>
